<svg width="64px" height="64px" viewBox="0 0 64 64" xmlns="http://www.w3.org/2000/svg" xmlns:xlink="http://www.w3.org/1999/xlink">
  <defs>
    <circle id="earthglobe-a" cx="18" cy="18" r="18"/>
  </defs>
  <g fill="none" fill-rule="evenodd">
    <circle cx="7" cy="32" r="4" stroke="#D650C7" stroke-linecap="round" stroke-width="2"/>
    <circle cx="57" cy="32" r="4" stroke="#D650C7" stroke-linecap="round" stroke-width="2"/>
    <circle cx="32" cy="7" r="5" fill="#80D25B"/>
    <circle cx="32" cy="57" r="5" fill="#80D25B"/>
    <g transform="translate(14 14)">
      <mask id="earthglobe-b" fill="#fff">
        <use xlink:href="#earthglobe-a"/>
      </mask>
      <use fill="#B4DFFB" xlink:href="#earthglobe-a"/>
      <path fill="#22BA8E" d="M27.4995846 12.7538974C27.4995846 12.7538974 23.1285694 10.9700507 21.8266173 11.861974 20.5246651 12.7538974 21.2201882 16.9654295 21.2201882 16.9654295 21.2201882 16.9654295 19.2798118 19.7463344 20.25 21.2089567 21.2201882 22.671579 23.9151553 22.168808 25.4292591 23.4589466 26.943363 24.7490852 26.3142913 27.0645419 26.3142913 27.0645419L25.9480711 29.7678769C25.9480711 29.7678769 30.0035659 27.9505584 31.1721233 25.3323794 32.3406807 22.7142004 31.9621547 18.6094825 31.9621547 18.6094825L34.3292957 16.4633535 36.4108786 9.71288388 29.106228 7.35052093 28.3014296 3.75 23.0778696 5.23063215 22.6058196 9.15765453 26.6178479 10.4860101 27.4995846 12.7538974zM-1.35808945 15.0302297C-1.35808945 15.0302297.119366474 14.0882415.316563573 14.0732515 1.82943665 13.95825 7.10128473 14.2798648 8.47967433 12.2815326 10.0377316 10.0227256 11.3365045 7.03166932 11.3365045 7.03166932L11.2843185 4.73031431 3.13766281 2.73102683-1.35808945 15.0302297z" mask="url(#earthglobe-b)"/>
    </g>
  </g>
</svg>
